<mxfile host="app.diagrams.net" modified="2023-06-16T05:39:51.987Z" agent="Mozilla/5.0 (Macintosh; Intel Mac OS X 10_15_7) AppleWebKit/537.36 (KHTML, like Gecko) Chrome/114.0.0.0 Safari/537.36" version="21.3.8" etag="9CnRn1iuriTW1cdhC1fA" type="github">
  <diagram name="Page-1" id="vuUPm-XfM37HLUpJ9oZ0">
    <mxGraphModel>
      <root>
        <mxCell id="0" />
        <mxCell id="1" parent="0" />
      </root>
    </mxGraphModel>
  </diagram>
</mxfile>
